<?xml version="1.0" standalone="no"?>
<!DOCTYPE svg PUBLIC "-//W3C//DTD SVG 20010904//EN"
 "http://www.w3.org/TR/2001/REC-SVG-20010904/DTD/svg10.dtd">
<svg version="1.0" xmlns="http://www.w3.org/2000/svg"
 width="1440.000000pt" height="900.000000pt" viewBox="0 0 1440.000000 900.000000"
 preserveAspectRatio="xMidYMid meet">
<metadata>
  Spaceth.co - Where Thai space nerds write
  Designed by @Nutn0n | Nattanon Dungsunenarn
  2018 Copyright. All right reserved.
</metadata>
<g transform="translate(0.000000,900.000000) scale(0.100000,-0.100000)"
fill="#000000" stroke="none">
<path d="M6293 7203 c-7 -2 -13 -15 -13 -28 0 -13 105 -221 234 -462 751
-1410 1066 -2002 1066 -2007 0 -3 -21 -6 -47 -6 -27 0 -65 -4 -85 -9 l-37 -9
-627 865 c-346 476 -634 868 -642 871 -21 8 -47 -12 -47 -36 0 -12 268 -389
615 -868 338 -466 616 -850 618 -853 1 -3 -17 -16 -41 -29 -64 -34 -140 -105
-185 -172 -22 -33 -42 -65 -44 -71 -2 -6 -319 217 -703 496 -385 280 -771 560
-858 622 -86 63 -164 113 -173 111 -22 -4 -39 -31 -32 -50 3 -7 395 -296 871
-641 l865 -628 -9 -37 c-5 -20 -9 -59 -9 -86 0 -35 -4 -47 -13 -43 -7 2 -558
295 -1225 651 -667 355 -1224 646 -1237 646 -32 0 -44 -36 -19 -60 11 -10 577
-315 1259 -678 902 -480 1243 -667 1252 -684 6 -12 26 -54 45 -93 65 -136 215
-253 366 -284 379 -79 720 262 641 641 -31 152 -150 304 -285 367 -38 18 -79
38 -92 44 -17 9 -207 357 -689 1262 -366 688 -671 1253 -677 1257 -12 9 -25 9
-43 1z m1363 -2635 c53 -105 83 -130 114 -93 11 13 10 22 -4 52 -9 19 -14 38
-11 41 12 12 121 -77 161 -131 120 -162 125 -369 12 -537 -107 -161 -321 -237
-506 -181 -118 36 -228 125 -281 229 l-12 22 45 -22 c37 -18 47 -19 60 -8 38
31 13 61 -93 114 l-53 28 4 91 c6 110 31 181 92 264 82 112 224 182 368 183
l78 0 26 -52z"/>
<path d="M7811 3980 c-49 -75 -156 -140 -231 -140 -33 0 -53 -21 -48 -52 3
-21 8 -23 60 -22 107 2 248 93 302 196 17 30 18 39 7 52 -26 31 -56 19 -90
-34z"/>
<path d="M8125 4446 c-18 -13 -19 -18 -7 -58 62 -205 51 -355 -36 -522 -103
-197 -340 -328 -566 -313 -45 3 -112 15 -149 27 -77 24 -107 20 -107 -14 0
-32 13 -40 100 -68 110 -34 282 -32 395 5 113 37 198 90 285 177 84 84 134
169 171 290 33 106 33 274 0 380 -21 69 -44 110 -61 110 -3 0 -15 -6 -25 -14z"/>
<path d="M3680 2780 c-117 -25 -190 -96 -198 -194 -12 -146 40 -203 248 -271
109 -36 150 -73 150 -135 0 -36 -6 -48 -38 -80 -78 -78 -200 -75 -276 6 l-24
27 -41 -33 c-23 -19 -41 -36 -41 -40 0 -15 59 -61 105 -82 41 -19 66 -23 145
-22 109 0 146 13 209 69 73 66 90 190 39 274 -29 46 -93 85 -206 122 -121 40
-167 78 -167 138 0 123 187 180 285 86 l25 -24 40 34 40 35 -37 34 c-54 51
-164 75 -258 56z"/>
<path d="M6023 2780 c-150 -32 -259 -133 -305 -284 -17 -55 -20 -85 -16 -158
5 -77 11 -100 42 -163 44 -90 123 -165 206 -196 105 -41 247 -35 342 12 45 23
108 77 108 92 0 15 -51 67 -65 67 -6 0 -26 -16 -45 -35 -45 -47 -109 -70 -190
-69 -113 1 -195 53 -251 156 -32 60 -34 68 -34 163 0 89 3 106 28 157 34 68
101 131 164 152 96 33 207 13 262 -48 14 -14 29 -26 33 -26 17 0 78 52 78 66
0 21 -89 83 -143 99 -65 19 -162 26 -214 15z"/>
<path d="M9653 2780 c-150 -32 -259 -133 -305 -284 -17 -55 -20 -85 -16 -158
5 -77 11 -100 42 -163 44 -90 123 -165 206 -196 105 -41 247 -35 342 12 45 23
108 77 108 92 0 15 -51 67 -65 67 -6 0 -26 -16 -45 -35 -45 -47 -109 -70 -190
-69 -113 1 -195 53 -251 156 -32 60 -34 68 -34 163 0 89 3 106 28 157 34 68
101 131 164 152 96 33 207 13 262 -48 14 -14 29 -26 33 -26 17 0 78 52 78 66
0 21 -89 83 -143 99 -65 19 -162 26 -214 15z"/>
<path d="M10520 2776 c-76 -17 -117 -37 -175 -83 -89 -72 -145 -198 -145 -328
1 -252 195 -431 449 -412 129 9 227 61 301 159 49 65 71 129 77 224 15 228
-116 403 -331 443 -73 13 -105 13 -176 -3z m225 -114 c64 -31 111 -77 147
-145 20 -36 23 -57 23 -147 0 -95 -3 -110 -27 -155 -58 -109 -154 -169 -273
-169 -119 0 -216 60 -273 169 -37 71 -43 197 -13 276 64 170 254 247 416 171z"/>
<path d="M4220 2370 l0 -400 45 0 45 0 0 175 0 175 73 0 c184 1 280 36 324
120 21 38 24 56 21 116 -8 163 -99 214 -385 214 l-123 0 0 -400z m357 274 c69
-51 62 -159 -12 -201 -35 -20 -54 -23 -147 -23 l-108 0 0 126 0 126 119 -4
c102 -3 124 -6 148 -24z"/>
<path d="M5030 2513 c-62 -142 -141 -322 -176 -400 l-63 -143 58 0 57 0 40 95
39 95 196 0 197 0 36 -86 c20 -47 36 -90 36 -95 0 -5 27 -9 61 -9 54 0 60 2
55 18 -21 56 -321 759 -329 770 -5 6 -28 12 -51 12 l-42 0 -114 -257z m234
-71 l74 -182 -155 0 c-85 0 -153 4 -151 9 21 56 152 360 155 358 1 -2 36 -85
77 -185z"/>
<path d="M6620 2370 l0 -400 260 0 260 0 0 45 0 45 -212 2 -213 3 -3 138 -3
137 191 0 190 0 0 45 0 45 -190 0 -190 0 0 120 0 120 205 0 205 0 0 50 0 50
-250 0 -250 0 0 -400z"/>
<path d="M7287 2763 c-4 -3 -7 -26 -7 -50 l0 -43 130 0 130 0 0 -350 0 -350
50 0 50 0 0 350 0 350 130 0 130 0 0 50 0 50 -303 0 c-167 0 -307 -3 -310 -7z"/>
<path d="M8090 2370 l0 -400 45 0 45 0 0 185 0 185 210 0 210 0 0 -185 0 -185
50 0 50 0 0 401 0 400 -47 -3 -48 -3 -3 -167 -2 -168 -210 0 -210 0 0 170 0
170 -45 0 -45 0 0 -400z"/>
<path d="M8987 2082 c-17 -19 -22 -68 -9 -88 4 -6 18 -17 30 -23 48 -25 104
23 93 79 -9 48 -82 68 -114 32z"/>
</g>
</svg>
