<?xml version="1.0" standalone="no"?>
<!DOCTYPE svg PUBLIC "-//W3C//DTD SVG 20010904//EN"
 "http://www.w3.org/TR/2001/REC-SVG-20010904/DTD/svg10.dtd">
<svg version="1.0" xmlns="http://www.w3.org/2000/svg"
 width="1440.000000pt" height="537.000000pt" viewBox="0 0 1440.000000 537.000000"
 preserveAspectRatio="xMidYMid meet">
<metadata>
Created by potrace 1.14, written by Peter Selinger 2001-2017
</metadata>
<g transform="translate(0.000000,537.000000) scale(0.100000,-0.100000)"
fill="#000000" stroke="none">
<path d="M1166 3440 c-210 -26 -375 -138 -437 -297 -17 -46 -22 -79 -23 -158
-1 -128 18 -184 92 -265 68 -76 125 -108 303 -168 217 -74 286 -116 310 -189
30 -91 -14 -176 -116 -228 -52 -26 -71 -30 -140 -30 -100 0 -176 32 -250 105
l-50 50 -104 -104 -103 -103 54 -47 c62 -55 167 -109 258 -133 90 -24 291 -23
380 1 201 55 328 189 360 377 23 138 -2 251 -78 344 -63 78 -144 124 -315 181
-224 74 -298 121 -313 199 -10 53 4 102 39 142 46 52 105 75 196 76 99 1 171
-23 229 -77 l45 -41 98 105 99 105 -35 31 c-107 95 -313 146 -499 124z"/>
<path d="M5270 3439 c-185 -22 -335 -93 -461 -219 -71 -71 -93 -101 -132 -180
-55 -111 -74 -181 -86 -305 -40 -421 177 -752 564 -856 118 -32 329 -33 440
-1 118 34 210 86 288 164 37 37 67 72 67 77 0 7 -160 127 -208 155 -9 5 -33
-11 -72 -48 -166 -158 -411 -166 -595 -18 -112 89 -176 213 -197 376 -10 80
-9 105 5 180 48 241 200 390 436 427 124 19 232 -12 334 -95 l57 -47 107 77
106 78 -72 68 c-146 136 -351 195 -581 167z"/>
<path d="M11480 3439 c-185 -22 -335 -93 -461 -219 -71 -71 -93 -101 -132
-180 -55 -111 -74 -181 -86 -305 -40 -421 177 -752 564 -856 118 -32 329 -33
440 -1 118 34 210 86 288 164 37 37 67 72 67 77 0 7 -160 127 -208 155 -9 5
-33 -11 -72 -48 -166 -158 -411 -166 -595 -18 -112 89 -176 213 -197 376 -10
80 -9 105 5 180 48 241 200 390 436 427 124 19 232 -12 334 -95 l57 -47 107
77 106 78 -72 68 c-146 136 -351 195 -581 167z"/>
<path d="M12940 3439 c-186 -22 -335 -93 -461 -219 -71 -71 -93 -101 -132
-180 -55 -111 -74 -181 -86 -305 -40 -421 178 -752 564 -856 108 -29 315 -32
427 -6 313 73 530 290 592 589 20 97 21 284 2 375 -78 366 -346 587 -736 607
-52 2 -129 0 -170 -5z m285 -270 c212 -65 348 -267 348 -514 -1 -335 -237
-573 -548 -552 -244 17 -426 184 -470 432 -19 104 -18 149 1 242 65 316 359
488 669 392z"/>
<path d="M1980 2651 l0 -761 135 0 135 0 2 313 3 312 205 6 c226 6 293 18 393
71 108 58 168 152 188 295 29 202 -44 365 -199 446 -117 62 -166 68 -534 74
l-328 5 0 -761z m665 484 c91 -45 125 -111 111 -209 -20 -129 -123 -175 -388
-176 l-118 0 0 211 0 211 168 -4 c162 -3 170 -4 227 -33z"/>
<path d="M3293 2668 c-177 -409 -325 -751 -329 -760 -6 -17 5 -18 147 -18
l154 0 68 175 69 175 323 0 323 0 50 -122 c28 -68 59 -145 70 -173 l20 -50
156 -3 c86 -1 156 1 156 6 0 4 -145 345 -323 758 l-323 749 -120 3 -119 2
-322 -742z m551 96 c58 -155 106 -284 106 -288 0 -3 -101 -6 -225 -6 -124 0
-225 3 -225 7 0 24 226 590 231 580 4 -7 54 -139 113 -293z"/>
<path d="M6130 2650 l0 -760 520 0 520 0 0 125 0 125 -385 0 -385 0 0 200 0
200 345 0 345 0 0 125 0 125 -345 0 -345 0 0 185 0 185 365 0 365 0 0 125 0
125 -500 0 -500 0 0 -760z"/>
<path d="M7287 3403 c-4 -3 -7 -60 -7 -124 l0 -119 233 -2 232 -3 3 -632 2
-633 135 0 135 0 0 635 0 635 230 0 230 0 0 125 0 125 -593 0 c-327 0 -597 -3
-600 -7z"/>
<path d="M8660 2650 l0 -760 135 0 135 0 0 335 0 335 350 0 350 0 0 -335 0
-335 140 0 140 0 -2 758 -3 757 -135 0 -135 0 -3 -297 -2 -298 -350 0 -350 0
0 300 0 300 -135 0 -135 0 0 -760z"/>
<path d="M10302 2183 c-47 -30 -82 -91 -82 -139 0 -49 40 -116 85 -142 53 -31
145 -27 193 7 101 72 91 225 -18 281 -58 29 -126 27 -178 -7z"/>
</g>
</svg>
